<?xml version="1.0" standalone="no"?><!DOCTYPE svg PUBLIC "-//W3C//DTD SVG 1.1//EN" "http://www.w3.org/Graphics/SVG/1.1/DTD/svg11.dtd"><svg t="1555229598708" class="icon" style="" viewBox="0 0 1024 1024" version="1.1" xmlns="http://www.w3.org/2000/svg" p-id="1459" xmlns:xlink="http://www.w3.org/1999/xlink" width="200" height="200"><defs><style type="text/css"></style></defs><path d="M512.027 228C354.613 228 227 355.609 227 513.027s127.609 285.032 285.027 285.032 285.032-127.614 285.032-285.032S669.445 228 512.027 228L512.027 228zM512.027 745.742c-128.523 0-232.715-104.187-232.715-232.715 0-128.523 104.192-232.714 232.715-232.714 128.528 0 232.715 104.191 232.715 232.714C744.742 641.555 640.555 745.742 512.027 745.742L512.027 745.742zM512.027 745.742" fill="" p-id="1460"></path><path d="M499.066 378.633c0 8.789 3.618 17.519 9.832 23.734 6.211 6.215 14.946 9.832 23.731 9.832 8.789 0 17.523-3.617 23.734-9.832 6.215-6.215 9.832-14.945 9.832-23.734 0-8.785-3.617-17.52-9.832-23.734-6.211-6.211-14.945-9.829-23.734-9.829-8.785 0-17.52 3.618-23.731 9.829C502.684 361.113 499.066 369.848 499.066 378.633L499.066 378.633zM499.066 378.633" fill="" p-id="1461"></path><path d="M522.973 687.699c-24.762 6.196-59.039 5.641-76.172-1.238-17.129-6.875-23.367-31.883-13.86-55.574l42.719-106.426c9.512-23.687-2.836-48.656-27.43-55.48l-8.164-2.262c-24.597-6.828-24.109-15.77 1.086-19.871l24.45-3.981c25.195-4.105 59.824-1.836 76.957 5.043 17.132 6.875 23.328 31.867 13.769 55.535l-39.832 98.625c-9.558 23.672 2.402 49.012 26.582 56.317 24.18 7.305 23.703 18.351-1.058 24.547L522.973 687.699 522.973 687.699zM522.973 687.699" fill="" p-id="1462"></path></svg>