<?xml version="1.0" standalone="no"?><!DOCTYPE svg PUBLIC "-//W3C//DTD SVG 1.1//EN" "http://www.w3.org/Graphics/SVG/1.1/DTD/svg11.dtd"><svg t="1545555715464" class="icon" style="" viewBox="0 0 1024 1024" version="1.1" xmlns="http://www.w3.org/2000/svg" p-id="1129" xmlns:xlink="http://www.w3.org/1999/xlink" width="200" height="200"><defs><style type="text/css"></style></defs><path d="M512 249.442043c-139.111489 0-251.925787 108.042894-251.925787 241.337191 0 158.284255 109.916596 198.634213 109.916596 290.728851 0 22.76766 17.408 43.944851 43.552681 59.500936-5.468596 4.553532-8.518809 9.542809-8.518809 14.771745 0 7.015489 5.51217 13.573447 14.989617 19.194553-8.889191 5.51217-14.052766 11.852255-14.052766 18.628085 0 6.841191 5.272511 13.246638 14.357787 18.802383-9.281362 5.577532-14.684596 12.091915-14.684596 18.998468 0 8.453447 7.974128 16.187915 21.307915 22.484426-5.163574 4.684255-8.126638 9.869617-8.126638 15.316426 0 16.122553 25.120681 29.826723 60.437787 35.317106C485.463149 1016.025872 498.05617 1024 512.740766 1024c14.662809 0 27.234043-7.908766 33.443404-19.368851 35.665702-5.403234 61.069617-19.194553 61.069617-35.360681 0-5.381447-2.854128-10.501447-7.908766-15.12034 13.617021-6.340085 21.74366-14.183489 21.74366-22.702298 0-6.841191-5.250723-13.268426-14.357787-18.802383 9.259574-5.599319 14.684596-12.070128 14.684596-18.976681 0-7.015489-5.533957-13.573447-14.989617-19.21634 8.932766-5.490383 14.074553-11.852255 14.074553-18.628085 0-5.425021-3.289872-10.545021-9.172426-15.207489 25.730723-15.534298 42.833702-36.493617 42.833702-59.065191 0-92.138213 109.785872-132.466383 109.785872-290.728851C763.925787 357.484936 651.133277 249.442043 512 249.442043zM643.551319 640.130723c-25.098894 36.864-53.48766 78.521191-55.230638 135.778043-8.627745 9.60817-39.413106 25.229617-76.233532 25.229617-36.842213 0-67.649362-15.621447-76.255319-25.273191-1.742979-57.278638-30.175319-98.93583-55.317787-135.778043-28.04017-41.090723-54.51166-79.893787-54.51166-149.329702 0-96.713532 83.445106-175.409021 185.997617-175.409021 102.574298 0 186.019404 78.695489 186.019404 175.409021C698.019404 560.215149 671.547915 599.04 643.551319 640.130723z" p-id="1130"></path><path d="M512 164.798638c18.126979 0 32.964085-19.608511 32.964085-43.574468L544.964085 43.574468c0-23.965957-14.837106-43.574468-32.964085-43.574468s-32.964085 19.608511-32.964085 43.574468l0 77.649702C479.035915 145.211915 493.873021 164.798638 512 164.798638z" p-id="1131"></path><path d="M343.083574 210.072511c15.708596-9.063489 18.715234-33.465191 6.754043-54.206638l-38.803064-67.257191c-11.982979-20.763234-34.641702-30.32783-50.350298-21.26434-15.708596 9.063489-18.737021 33.465191-6.77583 54.206638l38.846638 67.257191C304.738043 209.571404 327.374979 219.136 343.083574 210.072511z" p-id="1132"></path><path d="M198.154894 283.386553 130.941277 244.561702c-20.763234-11.982979-45.164936-8.954553-54.228426 6.754043-9.063489 15.708596 0.479319 38.345532 21.26434 50.328511l67.235404 38.824851c20.763234 11.982979 45.164936 8.954553 54.206638-6.754043C228.460936 318.006468 218.918128 295.369532 198.154894 283.386553z" p-id="1133"></path><path d="M926.044596 703.618723l-67.235404-38.803064c-20.763234-12.004766-45.164936-8.97634-54.206638 6.754043-9.063489 15.708596 0.457532 38.345532 21.286128 50.328511l67.19183 38.824851c20.763234 11.982979 45.164936 8.954553 54.228426-6.754043C956.372426 738.238638 946.829617 715.601702 926.044596 703.618723z" p-id="1134"></path><path d="M174.167149 502.631489c0-18.148766-19.608511-32.964085-43.574468-32.964085L52.942979 469.667404c-23.965957 0-43.574468 14.837106-43.574468 32.964085 0 18.126979 19.608511 32.964085 43.574468 32.964085l77.649702 0C154.558638 535.595574 174.167149 520.758468 174.167149 502.631489z" p-id="1135"></path><path d="M971.057021 469.667404l-77.627915 0c-23.987745 0-43.574468 14.837106-43.574468 32.964085 0 18.126979 19.586723 32.964085 43.574468 32.964085l77.627915 0c23.987745 0 43.574468-14.837106 43.574468-32.964085C1014.631489 484.504511 995.022979 469.667404 971.057021 469.667404z" p-id="1136"></path><path d="M165.190809 664.81566l-67.235404 38.803064c-20.763234 11.982979-30.32783 34.619915-21.26434 50.350298 9.063489 15.708596 33.465191 18.715234 54.228426 6.754043l67.213617-38.824851c20.763234-11.982979 30.32783-34.619915 21.26434-50.328511C210.355745 655.882894 185.954043 652.810894 165.190809 664.81566z" p-id="1137"></path><path d="M858.809191 340.469106l67.235404-38.824851c20.763234-11.982979 30.32783-34.619915 21.26434-50.328511-9.063489-15.708596-33.465191-18.737021-54.228426-6.754043l-67.213617 38.824851c-20.741447 11.982979-30.32783 34.619915-21.26434 50.328511C813.644255 349.42366 838.045957 352.452085 858.809191 340.469106z" p-id="1138"></path><path d="M763.337532 67.322553c-15.730383-9.063489-38.389106 0.501106-50.372085 21.26434l-38.803064 67.257191c-11.982979 20.763234-8.954553 45.143149 6.754043 54.206638 15.730383 9.063489 38.367319-0.501106 50.350298-21.26434l38.846638-67.257191C782.074553 100.787745 779.02434 76.386043 763.337532 67.322553z" p-id="1139"></path></svg>