<?xml version="1.0" standalone="no"?><!DOCTYPE svg PUBLIC "-//W3C//DTD SVG 1.1//EN" "http://www.w3.org/Graphics/SVG/1.1/DTD/svg11.dtd"><svg t="1545555727162" class="icon" style="" viewBox="0 0 1024 1024" version="1.1" xmlns="http://www.w3.org/2000/svg" p-id="1254" xmlns:xlink="http://www.w3.org/1999/xlink" width="200" height="200"><defs><style type="text/css"></style></defs><path d="M413.445406 989.53441c55.966558 44.062592 127.933068 45.905786 186.782178 5.345264 35.952536-24.780728 1.899514-83.916556-34.4063-58.89007-16.460752 11.345888-35.348378 20.336582-55.521118 21.488578-12.846042 0.737278-26.035124-4.295668-37.324692-9.927652-3.18975-1.576956-22.927294-15.390676-11.304928-6.231022C427.535604 914.434468 378.916226 962.35241 413.445406 989.53441L413.445406 989.53441 413.445406 989.53441zM413.445406 989.53441M387.5178 921.039248c89.77894-23.116732 179.57324-46.228346 269.347058-69.334838 42.562436-10.967008 24.494008-76.728098-18.124748-65.76109-89.77894 23.116732-179.56812 46.233466-269.347058 69.334838C326.830616 866.234928 344.899044 931.996018 387.5178 921.039248L387.5178 921.039248 387.5178 921.039248zM387.5178 921.039248M387.5178 817.615548c63.892294-16.99323 127.78971-33.976222 191.682004-50.948972 64.112454-17.04955 107.929288-18.068428 112.931512-96.132842 2.375674-37.053332 39.034766-68.597562 61.562702-95.083244 28.666796-33.669022 55.21904-69.590838 72.43243-110.5712 41.35924-98.508514 30.028712-203.985328-19.691462-296.984738-112.143034-209.735072-411.892566-220.82496-558.47262-45.260668-125.823636 150.696522-91.345656 417.724228 82.60584 520.50281 37.93909 22.420414 72.22251-36.536214 34.4063-58.87471C254.234348 518.808096 218.71189 362.02903 254.971626 247.346482 307.763792 80.419606 512.03072 21.816256 656.281182 105.676494c129.264266 75.156262 160.286256 250.341674 85.836552 372.68372-24.714168 40.616842-59.965266 74.162984-88.483584 112.035516-26.536884 35.240858-25.758646 73.507626-38.701968 113.65855l23.81305-23.81305c-89.77894 23.86425-179.56812 47.728502-269.347058 71.597872C326.943256 763.128666 344.970724 828.915356 387.5178 817.615548L387.5178 817.615548 387.5178 817.615548zM387.5178 817.615548" p-id="1255"></path></svg>