<?xml version="1.0" standalone="no"?><!DOCTYPE svg PUBLIC "-//W3C//DTD SVG 1.1//EN" "http://www.w3.org/Graphics/SVG/1.1/DTD/svg11.dtd"><svg t="1558767425658" class="icon" style="" viewBox="0 0 1024 1024" version="1.1" xmlns="http://www.w3.org/2000/svg" p-id="1284" xmlns:xlink="http://www.w3.org/1999/xlink" width="200" height="200"><defs><style type="text/css"></style></defs><path d="M511.8 762m-94.5 0a94.5 94.5 0 1 0 189 0 94.5 94.5 0 1 0-189 0Z" fill="#8a8a8a" p-id="1285"></path><path d="M695.5 658.2l57.6-66c-53.2-76.2-141.5-126-241.3-126-99.7 0-187.8 49.6-241 125.5l57.7 66.1c36-64.1 104.6-107.5 183.3-107.5 78.7 0 147.4 43.3 183.3 107.5" fill="#8a8a8a" p-id="1286"></path><path d="M695.5 659c-0.2 0-0.4-0.1-0.5-0.2l-0.2-0.2c-0.2-0.1-0.3-0.2-0.4-0.4-37-66-107-107.1-182.6-107.1s-145.6 41-182.6 107c0 0.1-0.1 0.2-0.2 0.3-0.3 0.3-0.8 0.3-1.1-0.1l-57.7-66.1c-0.1-0.1-0.2-0.3-0.2-0.4 0-0.2 0-0.4 0.1-0.6 55.2-78.8 145.6-125.8 241.7-125.8 96.3 0 186.8 47.2 242 126.2 0.1 0.2 0.2 0.5 0.1 0.7 0 0.1-0.1 0.2-0.2 0.3l-57.5 66c-0.3 0.3-0.5 0.4-0.7 0.4zM511.8 549.5c76 0 146.4 41.1 183.7 107.3L752 592c-54.9-78.3-144.7-125-240.3-125-95.3 0-185 46.6-240 124.6l56.5 64.8c37.5-65.9 107.7-106.9 183.6-106.9z" fill="#8a8a8a" p-id="1287"></path><path d="M858.8 470.9l-54 61.9c-67.7-87.6-173.8-144.1-293-144.1-119.1 0-225 56.3-292.7 143.7l-54-61.9c82.5-99.7 207.2-163.2 346.7-163.2 139.7 0 264.5 63.7 347 163.6" fill="#8a8a8a" p-id="1288"></path><path d="M804.8 533.6c-0.3 0-0.5-0.1-0.7-0.4-70.5-91.3-177.1-143.6-292.3-143.6-115 0-221.5 52.2-292 143.3 0 0.1-0.1 0.1-0.1 0.2-0.3 0.3-0.8 0.3-1.1 0l-0.1-0.1-54-61.9c-0.3-0.3-0.3-0.7 0-1.1 86-103.9 212.6-163.5 347.3-163.5 135 0 261.7 59.8 347.7 164 0.3 0.3 0.2 0.9-0.1 1.1-0.1 0.1-0.2 0.1-0.2 0.1l-53.7 61.5c-0.2 0.3-0.4 0.4-0.7 0.4z m-293-145.7c58.5 0 114.4 13.2 166.2 39.3 49.2 24.7 93 60.8 126.8 104.3l52.9-60.6C772 367.4 646 308.1 511.8 308.1c-134 0-260 59.2-345.6 162.4l52.9 60.6c33.8-43.5 77.7-79.4 126.7-104.1 51.7-25.9 107.6-39.1 166-39.1z" fill="#8a8a8a" p-id="1289"></path><path d="M959.5 355.4l-52.2 59.8C811.7 304 669.9 233.6 511.8 233.6c-158 0-299.6 70.2-395.3 181.2l-51.2-58.7c109.5-122.9 269-200.2 446.5-200.2 177.6 0 337.2 77.5 446.7 200.5" fill="#8a8a8a" p-id="1290"></path><path d="M907.4 416c-0.2 0-0.3 0-0.5-0.1-0.1-0.1-0.2-0.1-0.2-0.2-99.2-115.1-243.1-181.2-395-181.2-151.6 0-295.5 65.9-394.6 180.8 0 0.1-0.1 0.1-0.1 0.1-0.3 0.3-0.8 0.3-1.1-0.1l-51.2-58.7c-0.1-0.1-0.2-0.3-0.2-0.5s0-0.5 0.2-0.6c55.7-62.4 122.3-111.7 198-146.4 78.4-35.9 162.2-54.1 249.1-54.1 87 0 170.8 18.2 249.2 54.2 75.6 34.6 142 83.8 197.6 146l0.3-0.4c0.3-0.3 0.8-0.4 1.2-0.1 0.3 0.3 0.4 0.8 0.1 1.2L908 415.7c-0.2 0.2-0.4 0.3-0.6 0.3zM511.8 232.8c152 0 296.2 66 395.6 181.1l50.1-57.4c-113.3-127-275.7-199.8-445.8-199.8-169.9 0-332.2 72.7-445.4 199.4l50.1 57.4c99.5-114.8 243.5-180.7 395.4-180.7z" fill="#8a8a8a" p-id="1291"></path></svg>